<svg width="16" height="16" viewBox="0 0 16 16" fill="none" xmlns="http://www.w3.org/2000/svg">
  <path fill-rule="evenodd" clip-rule="evenodd"
    d="M2.66671 7.33334C2.66671 4.75601 4.75605 2.66668 7.33337 2.66668C9.9107 2.66668 12 4.75601 12 7.33334C12 8.59061 11.5028 9.73176 10.6943 10.5709C10.6715 10.5884 10.6495 10.6077 10.6286 10.6286C10.6077 10.6495 10.5884 10.6715 10.5709 10.6943C9.73176 11.5028 8.59063 12 7.33337 12C4.75605 12 2.66671 9.91067 2.66671 7.33334ZM11.0785 12.0213C10.052 12.8424 8.75004 13.3333 7.33337 13.3333C4.01967 13.3333 1.33337 10.6471 1.33337 7.33334C1.33337 4.01963 4.01967 1.33334 7.33337 1.33334C10.6471 1.33334 13.3334 4.01963 13.3334 7.33334C13.3334 8.75003 12.8424 10.052 12.0213 11.0785L14.4714 13.5286C14.7318 13.789 14.7318 14.2111 14.4714 14.4714C14.2111 14.7318 13.789 14.7318 13.5286 14.4714L11.0785 12.0213Z"
    fill="#313237" />
</svg>